<?xml version="1.0" encoding="utf-8"?>
<!-- Generator: Adobe Illustrator 16.0.0, SVG Export Plug-In . SVG Version: 6.00 Build 0)  -->
<!DOCTYPE svg PUBLIC "-//W3C//DTD SVG 1.1//EN" "http://www.w3.org/Graphics/SVG/1.1/DTD/svg11.dtd">
<svg version="1.1" id="Layer_1" xmlns="http://www.w3.org/2000/svg" xmlns:xlink="http://www.w3.org/1999/xlink" x="0px" y="0px"
	 width="327px" height="117px" viewBox="0 0 327 117" enable-background="new 0 0 327 117" xml:space="preserve">
<g>
	<path fill="#F5B01C" d="M5,5.6l21.4-0.2c0,0,7-0.5,7.5,4l0.5,4.6l-0.2,15.1c0,0,1.5,12.7-13.3,11.9c-14.7-0.7-10.7-13-10.4-15.9
		C10.7,22.2,13.1,13.1,5,5.6"/>
	<path fill="#F5B01C" d="M104.6,5.6L83.3,5.4c0,0-7.1-0.5-7.5,4l-0.5,4.6l0.2,15.1c0,0-1.5,12.7,13.3,11.9
		c14.7-0.7,10.7-13,10.4-15.9C98.9,22.2,96.5,13.1,104.6,5.6"/>
	<path fill="#F5B01C" d="M63.3,2.5H45.3c0,0-7.6-1-7.6,7.6c0,8.7-0.2,21.3-0.2,21.3s0.6,14.9,15.6,15.8c15,0.9,19.8-0.6,23.3-0.5
		c3.6,0.2,15.9,3,14.3,14.9l3.3-2.8l5.3,2.4c0,0,1.6-11.7-10.7-17.6c0,0-10.4-2.9-12.7-3.3c-2.3-0.4-5.5-2.3-5.3-10.1
		c0.2-7.8,0.3-17.8,0.3-17.8S72.8,2.7,63.3,2.5"/>
	<path fill="#F5B01C" d="M19.9,47.3c0,0-1.4,7.9,0.2,7.9c1.6,0,2.7-1.1,3.9-3.8c1.3-2.7,5.4-2,3.9,2.4c-1.6,4.5-2.8,9.8-12.7,10.4
		C5.4,64.6,4.4,52.3,8.7,46.8C13.2,41,20.5,41.1,19.9,47.3"/>
	<path fill="#F5B01C" d="M31.5,42.6c0,0,2.6,13.8-3.8,19.3c0,0,8.9,3.8,10.1,7.9c1.2,4.1,0.4,21.2,10.3,21.9c0,0,19-8.8,19.6-25.9
		c0,0-14.4,5.2-20.6-0.4c-6.2-5.6-7.3-6.7-8-22.4c0,0-0.9-3.7-3.4-2.8C33.1,41.1,31.5,42.6,31.5,42.6"/>
	<path fill="#F5B01C" d="M42.7,46.8c0,0,11.2,7.8,25.7,3.4c0,0,0.8,15.5-14.1,13.7C41.5,62.2,40.9,47.6,42.7,46.8"/>
	<path fill="#F5B01C" d="M54.6,91.7c0,0,22.2-16.8,18.7-42.2c0,0,16.7,4,11.9,23.1C80.3,91.7,66.7,93.5,54.6,91.7"/>
	<path fill="#F5B01C" d="M95.9,65.2c0,0,4.8,3.8,4.7,7.9c-0.1,4.1-3.3,6.8-3.3,6.8s5.6,5.6,11-6.8l0.9,1.4c0,0-2.7,14.8-20.4,9.7
		c0,0,4.7-2.2-0.5-4.8C83.2,76.9,87.9,65.2,95.9,65.2"/>
	<path fill="#F5B01C" d="M66,95.7c0,0,3.1,12-0.9,18c0,0,17.8,2.2,28.4-1c10.6-3.2,19.4-7.4,14.8-20.4C103.6,79.3,64.9,96.8,66,95.7
		"/>
	<path fill="#F5B01C" d="M52.1,99c0,0-13.7-2.1-15.3-12.9c-1.7-10.9-1.9-19.3-15.1-19.3c-13.1,0-19.8,9.4-14,27.6
		c5.7,18.2,31.7,26.3,40.5,14.7C48.2,109,52.6,105,52.1,99"/>
	<path fill="#F5B01C" d="M54.1,98.3c0,0,5.5,8.1-5.1,16.7c0,0,13.9,1.1,15.9-7.8c2-8.9-1.6-11.6-7-12.2
		C52.4,94.2,53.3,97.6,54.1,98.3"/>
	<path fill="#F5B01C" d="M143,21.3v-9.9c-0.8-0.4-1.6-0.6-2.3-0.8c-0.7-0.2-1.4-0.2-2.1-0.2c-1.7,0-3,0.6-4,1.7
		c-1,1.1-1.4,2.8-1.4,4.9c0,2,0.4,3.6,1.1,4.6c0.7,1.1,1.9,1.6,3.6,1.6c0.9,0,1.8-0.2,2.7-0.5C141.5,22.3,142.3,21.9,143,21.3
		 M146.1,24.2c0,3.1-0.7,5.3-2.1,6.8c-1.4,1.4-3.6,2.2-6.5,2.2c-1,0-1.9-0.1-2.8-0.2c-0.9-0.1-1.8-0.3-2.7-0.6v-3.1h0.2
		c0.5,0.2,1.3,0.4,2.4,0.7c1.1,0.3,2.2,0.4,3.3,0.4c1,0,1.9-0.1,2.6-0.4c0.7-0.3,1.2-0.6,1.6-1c0.4-0.4,0.7-0.9,0.8-1.5
		c0.2-0.6,0.2-1.3,0.2-2v-1.7c-0.9,0.7-1.8,1.3-2.6,1.7c-0.8,0.4-1.9,0.5-3.2,0.5c-2.2,0-3.9-0.8-5.2-2.4c-1.3-1.6-1.9-3.8-1.9-6.6
		c0-1.6,0.2-2.9,0.7-4c0.4-1.1,1-2.1,1.8-2.9c0.7-0.8,1.6-1.4,2.6-1.8c1-0.4,2-0.6,3-0.6c1.1,0,1.9,0.1,2.6,0.3
		c0.7,0.2,1.5,0.5,2.3,1l0.2-0.8h2.9V24.2z"/>
	<path fill="#F5B01C" d="M163.2,21.8v-5.1c-0.9,0.1-2,0.1-3.3,0.2c-1.3,0.1-2.3,0.3-3,0.5c-0.9,0.3-1.6,0.6-2.1,1.2
		c-0.5,0.5-0.8,1.2-0.8,2.2c0,1,0.3,1.8,0.9,2.4c0.6,0.5,1.6,0.8,2.9,0.8c1.1,0,2.1-0.2,2.9-0.6C161.6,22.9,162.4,22.4,163.2,21.8
		 M166.2,26.3h-3v-1.9c-0.3,0.2-0.6,0.4-1.1,0.8c-0.5,0.3-0.9,0.6-1.3,0.8c-0.5,0.3-1.1,0.5-1.8,0.6c-0.7,0.2-1.4,0.3-2.3,0.3
		c-1.6,0-3-0.5-4.2-1.6c-1.1-1.1-1.7-2.5-1.7-4.1c0-1.4,0.3-2.5,0.9-3.3c0.6-0.9,1.4-1.5,2.5-2c1.1-0.5,2.4-0.8,4-1
		c1.5-0.2,3.2-0.3,5-0.4v-0.5c0-0.7-0.1-1.3-0.4-1.7s-0.6-0.8-1-1.1c-0.4-0.3-1-0.4-1.6-0.5c-0.6-0.1-1.2-0.1-1.9-0.1
		c-0.8,0-1.7,0.1-2.7,0.3c-1,0.2-2,0.5-3.1,0.9h-0.2V8.5c0.6-0.2,1.5-0.3,2.6-0.5c1.1-0.2,2.2-0.3,3.3-0.3c1.3,0,2.4,0.1,3.3,0.3
		c1,0.2,1.8,0.6,2.5,1.1c0.7,0.5,1.2,1.1,1.6,1.9c0.4,0.8,0.5,1.8,0.5,2.9V26.3z"/>
	<path fill="#F5B01C" d="M187.3,26.3h-3.1V15.9c0-0.8,0-1.6-0.1-2.4c-0.1-0.7-0.3-1.3-0.5-1.7c-0.3-0.5-0.7-0.8-1.2-1
		c-0.5-0.2-1.2-0.3-2-0.3c-0.8,0-1.7,0.2-2.6,0.6c-0.9,0.4-1.8,0.9-2.6,1.6v13.6h-3.1V8.1h3.1v2c1-0.8,1.9-1.4,3-1.9
		c1-0.4,2.1-0.7,3.1-0.7c2,0,3.5,0.6,4.5,1.8c1,1.2,1.5,2.9,1.5,5.1V26.3z"/>
	<path fill="#F5B01C" d="M204.9,21.3v-9.9c-0.8-0.4-1.6-0.6-2.3-0.8c-0.7-0.2-1.4-0.2-2.1-0.2c-1.7,0-3,0.6-4,1.7
		c-1,1.1-1.4,2.8-1.4,4.9c0,2,0.4,3.6,1.1,4.6c0.7,1.1,1.9,1.6,3.6,1.6c0.9,0,1.8-0.2,2.7-0.5C203.3,22.3,204.1,21.9,204.9,21.3
		 M208,24.2c0,3.1-0.7,5.3-2.1,6.8c-1.4,1.4-3.6,2.2-6.5,2.2c-1,0-1.9-0.1-2.8-0.2c-0.9-0.1-1.8-0.3-2.7-0.6v-3.1h0.2
		c0.5,0.2,1.3,0.4,2.4,0.7c1.1,0.3,2.2,0.4,3.3,0.4c1,0,1.9-0.1,2.6-0.4c0.7-0.3,1.2-0.6,1.6-1c0.4-0.4,0.6-0.9,0.8-1.5
		c0.2-0.6,0.2-1.3,0.2-2v-1.7c-0.9,0.7-1.8,1.3-2.6,1.7c-0.8,0.4-1.9,0.5-3.2,0.5c-2.2,0-3.9-0.8-5.2-2.4c-1.3-1.6-1.9-3.8-1.9-6.6
		c0-1.6,0.2-2.9,0.7-4c0.4-1.1,1-2.1,1.8-2.9c0.7-0.8,1.6-1.4,2.6-1.8c1-0.4,2-0.6,3-0.6c1,0,1.9,0.1,2.6,0.3c0.7,0.2,1.5,0.5,2.3,1
		l0.2-0.8h2.9V24.2z"/>
	<path fill="#F5B01C" d="M226.2,15.2c0-1.6-0.4-2.8-1.2-3.7c-0.8-0.9-2-1.3-3.6-1.3c-1.6,0-2.9,0.5-3.9,1.5c-1,1-1.5,2.2-1.7,3.6
		H226.2z M229.2,17.5h-13.4c0,1.1,0.2,2.1,0.5,2.9c0.3,0.8,0.8,1.5,1.4,2c0.6,0.5,1.2,0.9,2,1.2c0.8,0.3,1.6,0.4,2.6,0.4
		c1.2,0,2.5-0.2,3.7-0.7c1.3-0.5,2.1-1,2.7-1.5h0.2v3.3c-1,0.4-2.1,0.8-3.2,1.1c-1.1,0.3-2.2,0.4-3.4,0.4c-3,0-5.4-0.8-7.1-2.4
		c-1.7-1.6-2.5-4-2.5-7c0-3,0.8-5.3,2.4-7.1c1.6-1.7,3.8-2.6,6.4-2.6c2.4,0,4.3,0.7,5.7,2.1c1.3,1.4,2,3.5,2,6.1V17.5z"/>
	<path fill="#F5B01C" d="M246.8,21.1c0,1.7-0.7,3-2.1,4.1c-1.4,1.1-3.3,1.6-5.6,1.6c-1.4,0-2.6-0.2-3.7-0.5c-1.1-0.3-2.1-0.7-2.8-1
		v-3.4h0.2c1,0.7,2,1.3,3.2,1.7c1.2,0.4,2.3,0.6,3.4,0.6c1.3,0,2.4-0.2,3.2-0.6c0.8-0.4,1.1-1.1,1.1-2.1c0-0.7-0.2-1.3-0.6-1.6
		c-0.4-0.4-1.2-0.7-2.4-0.9c-0.4-0.1-1-0.2-1.7-0.3c-0.7-0.1-1.3-0.3-1.9-0.4c-1.6-0.4-2.7-1-3.4-1.9c-0.7-0.8-1-1.8-1-3
		c0-0.7,0.2-1.5,0.5-2.1c0.3-0.7,0.8-1.3,1.4-1.8c0.6-0.5,1.4-0.9,2.3-1.2c0.9-0.3,2-0.4,3.2-0.4c1.1,0,2.2,0.1,3.3,0.4
		c1.1,0.3,2,0.6,2.8,1v3.3h-0.2c-0.8-0.6-1.7-1.1-2.9-1.5c-1.1-0.4-2.2-0.6-3.3-0.6c-1.1,0-2.1,0.2-2.8,0.6
		c-0.8,0.4-1.2,1.1-1.2,1.9c0,0.7,0.2,1.3,0.7,1.7c0.5,0.4,1.2,0.7,2.2,0.9c0.6,0.1,1.2,0.3,1.9,0.4c0.7,0.1,1.3,0.3,1.8,0.4
		c1.4,0.3,2.5,0.9,3.3,1.7C246.4,18.7,246.8,19.7,246.8,21.1"/>
	<polygon fill="#F5B01C" points="266.9,8.1 259.6,26.3 256.5,26.3 249.2,8.1 252.5,8.1 258.1,22.6 263.7,8.1 	"/>
	<path fill="#F5B01C" d="M281.3,21.8v-5.1c-0.9,0.1-2,0.1-3.3,0.2c-1.3,0.1-2.3,0.3-3,0.5c-0.9,0.3-1.6,0.6-2.1,1.2
		c-0.5,0.5-0.8,1.2-0.8,2.2c0,1,0.3,1.8,0.9,2.4c0.6,0.5,1.6,0.8,2.9,0.8c1.1,0,2.1-0.2,2.9-0.6C279.8,22.9,280.6,22.4,281.3,21.8
		 M284.4,26.3h-3v-1.9c-0.3,0.2-0.6,0.4-1.1,0.8c-0.5,0.3-0.9,0.6-1.3,0.8c-0.5,0.3-1.1,0.5-1.8,0.6c-0.7,0.2-1.4,0.3-2.3,0.3
		c-1.6,0-3-0.5-4.2-1.6c-1.1-1.1-1.7-2.5-1.7-4.1c0-1.4,0.3-2.5,0.9-3.3c0.6-0.9,1.4-1.5,2.5-2c1.1-0.5,2.4-0.8,4-1
		c1.5-0.2,3.2-0.3,5-0.4v-0.5c0-0.7-0.1-1.3-0.4-1.7c-0.2-0.5-0.6-0.8-1-1.1c-0.4-0.3-1-0.4-1.6-0.5c-0.6-0.1-1.2-0.1-1.9-0.1
		c-0.8,0-1.7,0.1-2.7,0.3c-1,0.2-2,0.5-3.1,0.9h-0.2V8.5c0.6-0.2,1.5-0.3,2.6-0.5c1.1-0.2,2.2-0.3,3.3-0.3c1.3,0,2.4,0.1,3.3,0.3
		c0.9,0.2,1.8,0.6,2.5,1.1c0.7,0.5,1.2,1.1,1.6,1.9c0.4,0.8,0.5,1.8,0.5,2.9V26.3z"/>
	<path fill="#F5B01C" d="M301.6,11.5h-0.2c-0.5-0.1-0.9-0.2-1.3-0.2c-0.4,0-0.9-0.1-1.5-0.1c-0.9,0-1.9,0.2-2.7,0.6
		c-0.9,0.4-1.7,1-2.5,1.6v12.9h-3.1V8.1h3.1v2.7c1.2-1,2.3-1.7,3.2-2.1c0.9-0.4,1.9-0.6,2.8-0.6c0.5,0,0.9,0,1.2,0
		c0.2,0,0.6,0.1,1.1,0.2V11.5z"/>
	<path fill="#F5B01C" d="M315,21.8v-5.1c-0.9,0.1-2,0.1-3.3,0.2c-1.3,0.1-2.3,0.3-3,0.5c-0.9,0.3-1.6,0.6-2.1,1.2
		c-0.5,0.5-0.8,1.2-0.8,2.2c0,1,0.3,1.8,0.9,2.4c0.6,0.5,1.6,0.8,2.9,0.8c1.1,0,2.1-0.2,2.9-0.6C313.4,22.9,314.2,22.4,315,21.8
		 M318,26.3h-3v-1.9c-0.3,0.2-0.6,0.4-1.1,0.8c-0.5,0.3-0.9,0.6-1.3,0.8c-0.5,0.3-1.1,0.5-1.8,0.6c-0.7,0.2-1.4,0.3-2.3,0.3
		c-1.6,0-3-0.5-4.2-1.6c-1.1-1.1-1.7-2.5-1.7-4.1c0-1.4,0.3-2.5,0.9-3.3c0.6-0.9,1.4-1.5,2.5-2c1.1-0.5,2.4-0.8,4-1
		c1.5-0.2,3.2-0.3,5-0.4v-0.5c0-0.7-0.1-1.3-0.4-1.7s-0.6-0.8-1-1.1c-0.4-0.3-1-0.4-1.6-0.5c-0.6-0.1-1.2-0.1-1.9-0.1
		c-0.8,0-1.7,0.1-2.7,0.3c-1,0.2-2,0.5-3.1,0.9h-0.2V8.5c0.6-0.2,1.5-0.3,2.6-0.5c1.1-0.2,2.2-0.3,3.3-0.3c1.3,0,2.4,0.1,3.3,0.3
		c1,0.2,1.8,0.6,2.5,1.1c0.7,0.5,1.2,1.1,1.6,1.9c0.4,0.8,0.5,1.8,0.5,2.9V26.3z"/>
	<path fill="#F5B01C" d="M177.9,109.5h-47.9V96.9h15.1V59h-15.1V47.2c2.3,0,4.5-0.1,6.7-0.4c2.1-0.3,3.9-0.7,5.3-1.4
		c1.7-0.8,2.9-1.9,3.8-3.1c0.8-1.3,1.3-2.9,1.4-4.8h16v59.5h14.8V109.5z"/>
	<path fill="#F5B01C" d="M233.5,73.5c0-8.7-0.8-14.9-2.6-18.6c-1.7-3.7-4.5-5.5-8.5-5.5c-4,0-6.8,1.8-8.5,5.5
		c-1.7,3.7-2.6,9.9-2.6,18.7c0,8.5,0.9,14.7,2.6,18.4c1.7,3.8,4.6,5.6,8.4,5.6s6.7-1.9,8.4-5.6C232.6,88.3,233.5,82.1,233.5,73.5
		 M252.1,73.5c0,6.1-0.5,11.5-1.6,16.2c-1.1,4.8-2.8,8.7-5.1,11.7c-2.4,3.1-5.4,5.5-9.2,7.1c-3.7,1.6-8.3,2.4-13.8,2.4
		c-5.4,0-10-0.8-13.7-2.4c-3.8-1.6-6.9-4-9.2-7.1c-2.4-3.2-4.1-7.1-5.2-11.8c-1.1-4.7-1.6-10-1.6-16.1c0-6.2,0.5-11.7,1.6-16.3
		c1.1-4.6,2.8-8.5,5.2-11.7c2.4-3.2,5.5-5.5,9.3-7.1c3.8-1.6,8.3-2.4,13.6-2.4c5.5,0,10.1,0.8,13.8,2.4s6.8,4,9.2,7.3
		c2.4,3.2,4.1,7,5.1,11.7C251.6,62.1,252.1,67.5,252.1,73.5"/>
	<path fill="#F5B01C" d="M303.1,56.2c0-2.4-0.9-4.4-2.8-5.8c-1.9-1.4-4.4-2.2-7.5-2.2c-1.2,0-2.3,0.1-3.5,0.4
		c-1.2,0.3-2.3,0.7-3.3,1.3c-0.9,0.5-1.7,1.3-2.3,2.2c-0.6,0.9-0.9,1.9-0.9,3c0,1.9,0.5,3.4,1.6,4.4c1.1,1.1,2.8,2.1,5.3,3.2
		c0.9,0.4,2.1,0.9,3.7,1.4c1.6,0.6,3.4,1.2,5.7,1.9c1.5-1.7,2.5-3.3,3.2-4.7C302.8,59.9,303.1,58.2,303.1,56.2 M304.6,90.2
		c0-2.3-0.6-4.1-1.7-5.3c-1.2-1.2-3.5-2.6-7.1-4.1c-1.1-0.5-2.6-1.1-4.6-1.8c-2-0.7-3.7-1.3-5.1-1.8c-1.4,1.3-2.6,2.8-3.7,4.6
		c-1.1,1.8-1.7,3.8-1.7,6c0,3.3,1.2,6,3.6,8c2.4,2,5.5,3,9.4,3c1,0,2.2-0.2,3.6-0.5c1.4-0.3,2.6-0.8,3.6-1.4
		c1.2-0.7,2.1-1.6,2.8-2.6C304.2,93.3,304.6,91.9,304.6,90.2 M323,89.4c0,6.4-2.7,11.6-8.1,15.6c-5.4,4.1-12.9,6.1-22.3,6.1
		c-5.3,0-9.9-0.5-13.7-1.6c-3.8-1.1-6.9-2.6-9.4-4.5c-2.4-1.9-4.3-4.1-5.4-6.7c-1.2-2.5-1.8-5.3-1.8-8.2c0-3.6,1-6.8,3.2-9.6
		c2.1-2.8,5.8-5.2,10.9-7.3v-0.3c-4.2-1.9-7.3-4.4-9.2-7.3c-2-2.9-2.9-6.3-2.9-10.2c0-5.7,2.6-10.4,7.9-14
		c5.3-3.6,12.1-5.5,20.6-5.5c8.9,0,15.8,1.6,20.9,4.9c5,3.3,7.6,7.7,7.6,13.2c0,3.4-1.1,6.4-3.2,9.1c-2.1,2.7-5.4,4.9-9.7,6.8v0.3
		c5,1.9,8.7,4.5,11.1,7.7C321.8,81.2,323,85,323,89.4"/>
</g>
</svg>
